<?xml version="1.0" encoding="UTF-8"?>
<svg id="a" data-name="Layer 1" xmlns="http://www.w3.org/2000/svg" width="9.07in" height="7.87in" viewBox="0 0 652.93 566.3">
  <defs>
    <style>
      .b {
        fill: #fe6f4e;
        stroke: #fe6f4e;
      }

      .b, .c, .d {
        stroke-linecap: round;
        stroke-linejoin: round;
        stroke-width: 5px;
      }

      .e, .c {
        fill: #ffa848;
      }

      .e, .f {
        stroke-width: 0px;
      }

      .c {
        stroke: #ffa848;
      }

      .d {
        fill: #3fc8d7;
        stroke: #3fc8d7;
      }

      .f {
        fill: #fff;
      }
    </style>
  </defs>
  <g>
    <path class="b" d="M35.34,501.82l8.99-90.6-27.59,2.13,1.74-17.45,73.86-5.7-1.74,17.45-27.45,2.12-8.99,90.6-18.81,1.45Z"/>
    <path class="b" d="M131.07,496.1c-13.75,1.06-23.99-2.67-30.73-11.2-6.73-8.53-9.18-22.07-7.34-40.64,2.02-19.8,6.95-34.39,14.78-43.76,7.83-9.37,19.36-14.65,34.6-15.82,14.12-1.09,24.47,2.5,31.04,10.76,6.57,8.26,8.84,22.29,6.82,42.1-1.84,18.57-6.69,32.68-14.54,42.33-7.86,9.65-19.4,15.07-34.64,16.24ZM133.09,476.8c8.45-.65,14.92-4.07,19.4-10.24,4.48-6.17,7.37-15.36,8.67-27.56.97-9.29.99-16.56.07-21.82-.92-5.26-3.05-8.89-6.38-10.91-3.33-2.02-8.16-2.78-14.48-2.3-8.46.65-14.96,3.9-19.51,9.75-4.55,5.84-7.47,15.54-8.76,29.06-1.18,12.63-.27,21.64,2.71,27.01,2.98,5.38,9.08,7.71,18.27,7Z"/>
    <path class="b" d="M188.08,490.04l10.73-108.05,37.63-2.9c12.54-.97,21.99,2.8,28.35,11.3,6.36,8.5,8.65,21.87,6.88,40.09-1.75,18.56-6.24,32.37-13.49,41.42-7.25,9.05-18.07,14.13-32.47,15.24l-37.63,2.9ZM208.63,471.14l16.17-1.25c4.92-.38,9.29-1.69,13.09-3.92,3.8-2.23,6.96-6.03,9.5-11.39,2.53-5.36,4.26-12.9,5.19-22.63,1.02-9.73,1.06-17.12.11-22.15-.95-5.03-3.05-8.37-6.31-10-3.26-1.63-7.91-2.22-13.94-1.75l-16.58,1.28-7.22,71.81Z"/>
    <path class="b" d="M320.05,481.53c-13.75,1.06-23.99-2.67-30.72-11.2-6.73-8.53-9.18-22.07-7.34-40.64,2.02-19.8,6.95-34.39,14.78-43.76,7.83-9.37,19.36-14.65,34.6-15.82,14.12-1.09,24.47,2.5,31.04,10.76,6.57,8.26,8.84,22.29,6.82,42.1-1.84,18.57-6.69,32.68-14.54,42.33-7.86,9.65-19.4,15.07-34.64,16.24ZM322.06,462.23c8.45-.65,14.92-4.07,19.4-10.24,4.48-6.17,7.37-15.36,8.67-27.56.97-9.29.99-16.56.07-21.82-.92-5.26-3.05-8.89-6.38-10.91-3.33-2.02-8.16-2.78-14.48-2.3-8.46.65-14.96,3.9-19.51,9.75-4.55,5.84-7.47,15.53-8.76,29.06-1.18,12.63-.27,21.64,2.71,27.01,2.98,5.38,9.08,7.71,18.27,7Z"/>
    <path class="b" d="M402.98,473.47l-23.55-105.41,19.09-1.47,16.61,80.8,33.15-84.64,20.21-1.56-44.88,110.68-20.63,1.59Z"/>
    <path class="b" d="M468.76,468.39l10.73-108.05,64.39-4.97-1.73,17.62-45.57,3.51-2.77,27.68,40.42-3.12-1.74,17.45-40.42,3.12-2.76,27.85,45.57-3.51-1.74,17.45-64.39,4.97Z"/>
    <path class="b" d="M539.97,462.9l37.83-56.7-26.26-51.42,22.16-1.71,17.24,34.47,24.29-37.67,22.16-1.71-37.02,56.3,27.12,51.69-22.44,1.73-17.8-34.42-24.85,37.71-22.44,1.73Z"/>
  </g>
  <ellipse class="e" cx="322.29" cy="184.06" rx="116.72" ry="101" transform="translate(40.93 426.1) rotate(-70.43)"/>
  <path class="f" d="M288.76,173.15c3.14,0,5.55,2.9,7.21,8.68,3.14,10.96,5.41,16.44,6.8,16.44,1.11,0,2.22-.93,3.33-2.79,22.75-37.32,43.78-63.89,63.11-79.71,8.23-6.72,16.23-10.08,23.99-10.08,10.26,0,16.41.36,18.45,1.09.92.21,1.39,1.34,1.39,3.41,0,1.55-.92,3.57-2.77,6.05-52.06,66.69-83.03,110.11-92.92,130.27-3.42,6.93-11.28,10.39-23.58,10.39-4.07,0-8.32-1.19-12.76-3.57-1.85-1.14-5.09-8.06-9.71-20.78-5.83-16.13-8.74-30.24-8.74-42.34,0-4.44,2.82-8.12,8.46-11.01,7.95-4.03,13.87-6.05,17.75-6.05Z"/>
  <g>
    <path class="b" d="M203.57,141.87c2.86-8.06,6.34-15.77,10.34-23.11-27.44,13.33-52.77,31.29-74.98,53.5-50.59,50.59-79.2,117.3-81.04,188.55l36.12-2.79c2.49-60.58,27.24-117.18,70.37-160.31,9.93-9.93,20.58-18.89,31.83-26.83,1.52-9.75,3.97-19.47,7.36-29.01Z"/>
    <path class="b" d="M530.7,172.25c-27.56-27.56-59.9-48.58-95.15-62.33,1.81,3.62,3.47,7.35,4.97,11.2,4.34,11.14,7.23,22.8,8.66,34.72,20.36,11.01,39.25,25.03,56.08,41.86,34.25,34.25,56.92,77,66.05,123.49l36.11-2.78c-9.93-55.07-36.3-105.76-76.7-146.16Z"/>
  </g>
  <g>
    <path class="c" d="M485.99,225.96c-11.48-11.48-24.03-21.48-37.43-29.93-.53,3.6-1.19,7.19-1.98,10.78,41.15,27.1,71.94,68.69,85.06,117.45l10.2-.79c-9.41-36.57-28.45-70.11-55.85-97.51Z"/>
    <path class="c" d="M195.73,214.75c-4.15,3.57-8.19,7.3-12.1,11.21-35.32,35.32-56.76,80.82-61.58,129.89l10.16-.78c5.5-50.78,29.72-96.03,65.61-128.67-.85-3.84-1.55-7.73-2.09-11.64Z"/>
  </g>
  <path class="d" d="M437.24,235.87c-10.47,24.43-26.57,45.4-47.01,61.05-22.94,17.56-50.39,27.24-77.29,27.24-13.04,0-25.86-2.21-38.11-6.56-16.46-5.85-31.09-15.23-43.47-27.88-9.65-9.86-17.58-21.35-23.64-34.22-24.43,26.11-40.82,59.83-45.22,97.23l336.63-25.96c-10.23-36.71-32.33-68.48-61.9-90.9Z"/>
</svg>